<?xml version="1.0" standalone="no"?>
<svg xmlns:xlink="http://www.w3.org/1999/xlink" id="wave" style="transform:rotate(180deg); transition: 0.3s" viewBox="0 0 1440 490" version="1.1" xmlns="http://www.w3.org/2000/svg"><defs><linearGradient id="sw-gradient-0" x1="0" x2="0" y1="1" y2="0"><stop stop-color="rgba(243, 106, 62, 1)" offset="0%"/><stop stop-color="rgba(255, 179, 11, 1)" offset="100%"/></linearGradient></defs><path style="transform:translate(0, 0px); opacity:1" fill="url(#sw-gradient-0)" d="M0,147L40,122.5C80,98,160,49,240,65.3C320,82,400,163,480,204.2C560,245,640,245,720,212.3C800,180,880,114,960,81.7C1040,49,1120,49,1200,57.2C1280,65,1360,82,1440,89.8C1520,98,1600,98,1680,81.7C1760,65,1840,33,1920,89.8C2000,147,2080,294,2160,302.2C2240,310,2320,180,2400,138.8C2480,98,2560,147,2640,196C2720,245,2800,294,2880,310.3C2960,327,3040,310,3120,261.3C3200,212,3280,131,3360,106.2C3440,82,3520,114,3600,171.5C3680,229,3760,310,3840,310.3C3920,310,4000,229,4080,187.8C4160,147,4240,147,4320,163.3C4400,180,4480,212,4560,212.3C4640,212,4720,180,4800,163.3C4880,147,4960,147,5040,163.3C5120,180,5200,212,5280,212.3C5360,212,5440,180,5520,212.3C5600,245,5680,343,5720,392L5760,441L5760,490L5720,490C5680,490,5600,490,5520,490C5440,490,5360,490,5280,490C5200,490,5120,490,5040,490C4960,490,4880,490,4800,490C4720,490,4640,490,4560,490C4480,490,4400,490,4320,490C4240,490,4160,490,4080,490C4000,490,3920,490,3840,490C3760,490,3680,490,3600,490C3520,490,3440,490,3360,490C3280,490,3200,490,3120,490C3040,490,2960,490,2880,490C2800,490,2720,490,2640,490C2560,490,2480,490,2400,490C2320,490,2240,490,2160,490C2080,490,2000,490,1920,490C1840,490,1760,490,1680,490C1600,490,1520,490,1440,490C1360,490,1280,490,1200,490C1120,490,1040,490,960,490C880,490,800,490,720,490C640,490,560,490,480,490C400,490,320,490,240,490C160,490,80,490,40,490L0,490Z"/><defs><linearGradient id="sw-gradient-1" x1="0" x2="0" y1="1" y2="0"><stop stop-color="rgba(243, 106, 62, 1)" offset="0%"/><stop stop-color="rgba(255, 179, 11, 1)" offset="100%"/></linearGradient></defs><path style="transform:translate(0, 50px); opacity:0.9" fill="url(#sw-gradient-1)" d="M0,392L40,343C80,294,160,196,240,147C320,98,400,98,480,114.3C560,131,640,163,720,155.2C800,147,880,98,960,98C1040,98,1120,147,1200,171.5C1280,196,1360,196,1440,204.2C1520,212,1600,229,1680,261.3C1760,294,1840,343,1920,375.7C2000,408,2080,425,2160,392C2240,359,2320,278,2400,212.3C2480,147,2560,98,2640,114.3C2720,131,2800,212,2880,253.2C2960,294,3040,294,3120,310.3C3200,327,3280,359,3360,318.5C3440,278,3520,163,3600,163.3C3680,163,3760,278,3840,334.8C3920,392,4000,392,4080,392C4160,392,4240,392,4320,326.7C4400,261,4480,131,4560,89.8C4640,49,4720,98,4800,98C4880,98,4960,49,5040,73.5C5120,98,5200,196,5280,212.3C5360,229,5440,163,5520,155.2C5600,147,5680,196,5720,220.5L5760,245L5760,490L5720,490C5680,490,5600,490,5520,490C5440,490,5360,490,5280,490C5200,490,5120,490,5040,490C4960,490,4880,490,4800,490C4720,490,4640,490,4560,490C4480,490,4400,490,4320,490C4240,490,4160,490,4080,490C4000,490,3920,490,3840,490C3760,490,3680,490,3600,490C3520,490,3440,490,3360,490C3280,490,3200,490,3120,490C3040,490,2960,490,2880,490C2800,490,2720,490,2640,490C2560,490,2480,490,2400,490C2320,490,2240,490,2160,490C2080,490,2000,490,1920,490C1840,490,1760,490,1680,490C1600,490,1520,490,1440,490C1360,490,1280,490,1200,490C1120,490,1040,490,960,490C880,490,800,490,720,490C640,490,560,490,480,490C400,490,320,490,240,490C160,490,80,490,40,490L0,490Z"/></svg>